<?xml version="1.0" encoding="UTF-8"?><svg id="Layer_2" xmlns="http://www.w3.org/2000/svg" viewBox="0 0 296.72 467.66"><defs><style>.cls-1{fill:#666;stroke-width:0px;}</style></defs><g id="Layer_1-2"><path class="cls-1" d="M220.4,104.52c26.3,14.94,26.48,39.69.39,55l-38.34,22.5c-26.09,15.31-68.78,40.37-94.87,55.68l-38.34,22.5c-26.09,15.31-47.61,3.09-47.83-27.16l-.32-44.45c-.22-30.25-.57-79.75-.79-110L0,34.14C-.22,3.9,21.13-8.63,47.43,6.3l38.66,21.95c26.3,14.94,69.35,39.38,95.65,54.32l38.66,21.95Z"/><path class="cls-1" d="M76.58,362.44c-26.25-15.03-26.34-39.78-.19-55l38.42-22.36c26.14-15.22,68.92-40.12,95.07-55.33l38.42-22.36c26.14-15.22,47.62-2.92,47.73,27.33l.16,44.45c.11,30.25.28,79.75.39,110l.16,44.45c.11,30.25-21.28,42.7-47.53,27.67l-38.58-22.09c-26.25-15.03-69.21-39.63-95.46-54.66l-38.58-22.09Z"/></g></svg>